<svg xmlns="http://www.w3.org/2000/svg" xmlns:xlink="http://www.w3.org/1999/xlink" id="visual" x="0px" y="0px" viewBox="0 0 1000 364.5" style="enable-background:new 0 0 1000 364.5;" xml:space="preserve"><style type="text/css">	.st0{opacity:0.5;fill:#FFFFFF;}	.st1{fill:#FFFFFF;}</style><path class="st0" d="M-119.8,221.2l33.4,18.9C-53.1,259,13.7,296.7,77,296c63.4-0.6,123.3-39.8,186.6-40.9 c63.3-1.1,130,35.9,194.4,47.6c64.5,11.9,126.7-1.3,187.4-32.1c60.7-30.9,119.8-79.3,181.5-99.1s125.9-10.9,158-6.5l32.1,4.5 l-32-361.7l-31.5,2.8c-31.5,2.8-94.4,8.3-157.3,13.9s-125.8,11.1-188.8,16.7s-125.8,11.1-188.8,16.7 c-62.9,5.6-123.9,22.2-186.8,27.8S106.1-103.3,43.2-97.7S-82.7-86.6-114.1-83.8l-31.5,2.8L-119.8,221.2z"></path><path class="st1" d="M-52.6,122.2l29.5-6.9c29.5-7,88.4-20.7,148.3-9.3s120.8,47.8,180.8,60.2c60,12.3,119,0.5,177.5-22.6 s116.7-57.5,175.9-65.4C718.5,70.4,778.7,89,838,83.8c59.3-5.3,117.6-34.4,146.8-49.1l29.2-14.6l-4.9-125.9l-29.7,1.2 c-29.7,1.2-89.1,3.5-148.5,5.8S712.1-94.3,652.7-92S534-87.4,474.6-85.1s-117.4,15-176.8,17.3S179-63.2,119.6-60.8 S0.9-56.2-28.8-55.1l-29.7,1.2L-52.6,122.2z"></path></svg>